<?xml version="1.0" encoding="UTF-8"?>
<!DOCTYPE svg PUBLIC "-//W3C//DTD SVG 1.1//EN" "http://www.w3.org/Graphics/SVG/1.1/DTD/svg11.dtd">
<!-- Creator: CorelDRAW 2018 (64-Bit Evaluation Version) -->
<svg xmlns="http://www.w3.org/2000/svg" xml:space="preserve" width="297mm" height="210mm" version="1.1" style="shape-rendering:geometricPrecision; text-rendering:geometricPrecision; image-rendering:optimizeQuality; fill-rule:evenodd; clip-rule:evenodd"
viewBox="0 0 29700 21000"
 xmlns:xlink="http://www.w3.org/1999/xlink">
 <defs>
  <style type="text/css">
   <![CDATA[
    .fil12 {fill:white}
    .fil8 {fill:white}
    .fil10 {fill:white}
    .fil1 {fill:white}
    .fil2 {fill:white}
    .fil13 {fill:white}
    .fil4 {fill:white}
    .fil3 {fill:white}
    .fil7 {fill:white}
    .fil9 {fill:white}
    .fil6 {fill:white}
    .fil11 {fill:white}
    .fil5 {fill:white}
    .fil0 {fill:white}
   ]]>
  </style>
 </defs>
 <g id="Layer_x0020_1">
  <metadata id="CorelCorpID_0Corel-Layer"/>
  <path class="fil0" d="M11305.9 13860.24c7.66,-15.44 6.53,-10.59 8.47,-33.86l16.93 0c-3.76,45.15 5.87,19.69 -25.4,33.86zm16.93 -160.86l8.47 0c0,72.62 15.7,37.63 16.93,93.13 -32.47,-23.79 -25.4,-40.18 -25.4,-93.13zm-42.33 25.4c0.84,-0.85 2.52,1.33 2.52,2.52l-2.52 -2.52zm-25.4 -8.47l0 0zm-143.93 -635c0,-21.66 13.4,-1.36 5.03,0 -0.1,0.02 -5.03,23.63 -5.03,0zm-931.34 -84.67l2.53 2.53c-0.17,-0.17 -3.37,-1.68 -2.53,-2.53zm50.8 -110.06l2.53 2.52c-0.17,-0.16 -3.37,-1.68 -2.53,-2.52zm-42.33 -42.34c24.16,5.79 12.74,-1.28 25.4,16.94 -24.76,-5.93 -12.2,1.09 -25.4,-16.94zm0 0l0 0zm203.2 33.87c2.74,-32.92 13.42,-52.75 33.86,-67.73 -2.74,32.92 -13.42,52.75 -33.86,67.73zm1016 -211.67c0.84,-0.84 2.52,1.34 2.52,2.53l-2.52 -2.53zm-1049.87 -25.4c0,-21.65 13.41,-1.36 5.03,0 -0.1,0.02 -5.03,23.64 -5.03,0zm-33.87 -16.93l0 0zm-118.53 0l2.53 2.52c-0.17,-0.16 -3.37,-1.68 -2.53,-2.52zm42.33 8.47c-14.27,-9.92 -16.93,-1.22 -16.93,-25.4 0,-23.43 6.53,-20.37 25.4,-25.4 -0.43,19.2 -2.61,37.69 -8.47,50.8zm76.2 -8.47c-33.72,-2.81 -27.61,-3.42 -42.33,-25.4 35.37,-7.49 15.88,-14.1 42.33,25.4zm-152.4 -25.4c0,-22.99 30.29,0 7.59,0.46 -8.55,0.18 -7.59,18.79 -7.59,-0.46zm118.54 -59.27c3.98,18.83 11,42.96 -14.27,36.47 -21.96,-5.64 6.78,-27.85 14.27,-36.47zm-67.74 25.4c-21.89,2.72 -2.58,-28.62 -0.27,-10.5l0.27 10.5zm245.54 0c-11.87,-13.65 -23.61,-27.01 -33.87,-42.33 27.08,-18.13 5.93,-13.9 42.33,-16.93 -12.02,25.06 -8.46,23.64 -8.46,59.26zm-76.2 313.27c-9.41,25.23 18.16,13.22 -25.4,16.93 7.33,22.11 20.15,12.32 11.82,52.5 -9.2,44.33 -12.92,32.81 -28.74,66.05 -35.52,74.59 0.84,79.69 -93.15,101.59 -29.12,-39.75 -19.95,7.47 -25.4,-42.34 -20.24,10.71 -60.35,28.2 -84.67,33.87 0,189.09 0,378.18 0,567.27 0,93.81 -24.27,223.05 58.52,224.72 61.29,1.24 210.72,1.15 271.68,-13.06 20.54,-88.14 8.47,-990.18 8.47,-1159.93l82.99 314.95c25.37,108.36 45.56,210.05 71.1,318.36l106.17 478.03c18.6,73.97 51.72,56.71 137.89,57.3 105.53,0.71 98.59,4.44 145.88,-235.14 20.5,-103.81 44.56,-209.78 69.14,-320.33l48.48 -221.78c8.4,-25.44 12.04,-50 19.29,-82.99 8.91,-40.51 55.09,-289.37 81.06,-308.4 0,41.13 -9.08,937.26 5.89,984.72 0.44,1.39 1.43,4.07 2.58,5.88 -13.96,29.09 -18.31,130.21 2.71,158.16 24.84,33.04 114.28,19.64 166.62,19.64 192.24,0.01 160.87,27.23 160.87,-211.67l0 -1651c0.27,-174.32 34.24,-127 -414.87,-127 -46.57,69.56 -135.91,531.68 -156,622.93l-148.8 638.61c-2.73,-32.85 -14.3,-62.21 -21.83,-96.71l-250.4 -1112.73c-19.64,-76.28 -72.13,-60.59 -184.97,-60.56 -80.12,0.02 -179.09,-7.02 -245.53,8.46 -33.52,69.87 -16.9,432.37 -16.94,567.27 -0.01,38.56 -8.09,108.14 9.74,140.42 10.71,19.4 9.05,0.51 15.66,20.45l-25.4 0 0 457.2c12.64,-3.38 35.36,-14.52 45.21,-22.53l91.45 -77.89c0.5,-0.67 14.34,-24.48 15.74,-26.58 41.35,13.71 2.91,2.31 11.95,11.94 14.92,15.91 -25.52,-1.54 13.45,13.46 13.98,-20.88 29.18,-39.63 42.34,-59.27l-25.4 0c1.61,-19.39 3.36,-32.46 14.56,-45.01 15.65,-17.54 13.07,-10.7 36.24,-5.79z" />
  <path class="fil0" d="M14430.1 13767.11c0,-21.66 13.41,-1.36 5.03,0 -0.1,0.02 -5.03,23.63 -5.03,0zm177.8 -42.33l2.53 2.52c-0.17,-0.16 -3.37,-1.68 -2.53,-2.52zm16.93 -59.27c0.85,-0.84 2.53,1.33 2.53,2.53l-2.53 -2.53zm728.14 -804.33l2.53 2.52c-0.17,-0.16 -3.37,-1.68 -2.53,-2.52zm-67.73 -8.47l2.52 2.52c-0.17,-0.16 -3.37,-1.68 -2.52,-2.52zm76.2 -50.8c0,-14.32 24.83,-11.88 10.71,0 -6.9,5.81 -10.71,13.87 -10.71,0zm-411.06 9.74c-12.57,-38.86 -19.68,-26.25 13.12,-43.61l-13.12 43.61zm233.26 -119.81c13.59,28.33 3.34,39.41 16.93,67.74l-25.4 0c-4.9,-58.84 -40.92,-43.25 8.47,-67.74zm-84.67 -8.46l0 0zm-728.14 -25.4c0.85,-0.85 2.52,1.33 2.53,2.52l-2.53 -2.52zm990.61 -84.67c34.99,2.91 35.28,10.69 50.8,33.87 -24.55,-6.56 -34.52,-19.71 -50.8,-33.87zm-948.27 16.93c7.9,-29.58 3.22,-19.01 25.4,-33.86 -10.22,38.27 -6.47,15.34 -25.4,33.86zm778.93 -59.26l2.53 2.52c-0.17,-0.16 -3.37,-1.68 -2.53,-2.52zm-660.4 -93.14l0 0zm0 0l0 0zm-59.27 -25.4c0.85,-0.84 2.52,1.34 2.53,2.53l0 0c-0.17,-0.17 -3.37,-1.68 -2.53,-2.53zm33.87 -25.4c24.75,5.93 12.2,-1.09 25.4,16.94l-25.4 0 0 -16.94zm118.53 -33.86c-7.66,-15.47 -6.48,-10.6 -8.46,-33.87 6.11,7.04 6.46,0.46 10.32,14.48l-1.86 19.39zm-93.13 -16.94c9,-9 32.12,13.44 9.43,4.4 -0.19,-0.07 -23.61,9.78 -9.43,-4.4zm575.74 -16.93l2.52 2.52c-0.17,-0.16 -3.37,-1.68 -2.52,-2.52zm-728.14 -25.4c34.01,9.08 24.51,2.3 25.4,42.33 -23.73,-15.89 -20.98,-7.86 -25.4,-42.33zm355.6 50.8l-17.58 -7.73c-23.02,-5.28 1.09,-8.51 -16.29,1.38 -18.16,10.34 2.5,13.57 -33.86,23.28l0 -33.86c-51.28,-1.15 -24.82,5.48 -33.87,-16.94 41.73,-20.02 16.23,0 59.27,0 28.44,0 -6.63,-34.46 49.76,-17.18 36.9,11.31 -2.18,-3.17 27.8,15.16 1.15,0.71 3.19,2.25 4.28,2.88 0.99,0.58 3.12,1.9 4.06,2.39l11.81 4.38c0.53,0.18 2.69,0.27 3.89,0.84 7.3,87.78 -3.59,17.62 -8.47,76.2 25.51,6.81 18.59,-0.11 25.4,25.4 -30.81,-7.18 -27.15,-4.67 -42.33,-25.4 -39.75,29.12 7.47,19.95 -42.34,25.4 21.23,-79.5 29.46,-41.36 50.8,-50.8l-25.4 -59.27c-44.9,3.93 -16.93,-11.08 -16.93,33.87zm541.87 -50.8c34.54,2.87 33.76,1.72 42.33,25.4 -30.81,-7.18 -27.15,-4.67 -42.33,-25.4zm-728.14 0l0 0zm855.14 -8.47l0 0zm0 0l0 0zm-76.2 -8.46c0.79,-1.05 16.14,-15.89 16.93,-16.94 5.95,22.41 -0.67,6.97 8.47,25.4 -44.76,0 -12.62,-0.06 -25.4,-8.46zm0 0c-10.04,-15.83 -9.52,18.9 -6.99,-16.94 1.28,-18.07 1.05,-7.56 6.99,-16.93l0 33.87zm-778.94 16.93c-2.14,-3.45 -16.23,7.77 -5.26,-15.22 8.75,-18.35 -7.49,-1.61 13.73,-10.18 -6.41,11.41 -4.62,9.36 -8.47,25.4zm135.47 -16.93c-22.17,2.75 -1.61,-31.46 -0.01,-8.07 0.05,0.75 7.06,7.19 0.01,8.07zm-194.73 0l0 -33.87 33.86 0c-15.08,28.5 0.45,25.65 -33.86,33.87zm855.13 -42.34c27.04,-5.72 13.19,-8.54 33.87,0 -18.44,25.16 -15.43,25.16 -33.87,0zm-956.73 0c9.16,-9.15 46.22,12.69 13.94,4.37 -7.5,-1.93 -28.23,9.92 -13.94,-4.37zm821.27 -8.46l0 0zm0 0l0 0zm-524.94 -16.94c0,-21.65 13.41,-1.36 5.03,0 -0.1,0.02 -5.03,23.64 -5.03,0zm-262.47 8.47l50.52 -9.75c-17.29,27.52 -26.41,42.64 -50.52,9.75zm84.67 -8.47c8.15,-30.52 0.77,-22.64 33.87,-25.4 -8.67,32.45 -0.69,21.93 -33.87,25.4zm626.54 -25.4c29.94,8 26.1,9.03 33.86,42.34 -17.87,-13.1 -21.57,-23.98 -33.86,-42.34zm-660.41 -16.93c5.47,-5.46 35.97,-6.14 17.45,9.2 -14.31,11.86 -21.88,-4.76 -17.45,-9.2zm855.14 -8.47c0.84,-0.84 2.52,1.34 2.52,2.53l0.01 0c-0.17,-0.17 -3.37,-1.68 -2.53,-2.53zm-618.07 0c9,-9 32.12,13.44 9.43,4.4 -0.19,-0.07 -23.61,9.78 -9.43,-4.4zm-177.8 0l0 0zm719.67 -8.46l2.53 2.52c-0.17,-0.16 -3.37,-1.68 -2.53,-2.52zm-719.67 8.46c-26.01,-19.06 -13.66,5.46 -16.93,-33.86l16.93 0 0 33.86zm872.07 -25.4c0.84,-0.84 2.52,1.34 2.52,2.53l0.01 0c-0.17,-0.17 -3.37,-1.68 -2.53,-2.53zm-821.27 -33.86l2.53 2.52c-0.17,-0.16 -3.37,-1.68 -2.53,-2.52zm-127 0l2.53 2.52c-0.17,-0.16 -3.37,-1.68 -2.53,-2.52zm8.47 -16.94l2.52 2.53c-0.16,-0.17 -3.36,-1.68 -2.52,-2.53zm872.07 -67.73l27.21 23.59 -27.21 1.81 0 -25.4zm-618.07 16.93l2.52 2.53c-0.16,-0.17 -3.36,-1.68 -2.52,-2.53zm-93.14 -8.46c11.41,6.41 9.36,4.62 25.4,8.46 -16.7,22.8 -21.83,33.41 -25.4,-8.46zm-101.6 -33.87c25.51,6.81 18.59,-0.11 25.4,25.4 -35.32,-9.43 -13.94,-3.59 -25.4,-25.4zm67.74 0l2.52 2.52c-0.16,-0.16 -3.36,-1.68 -2.52,-2.52zm711.2 -127c33.86,2.82 35.87,5.03 50.8,25.4 -26.01,10.74 -34.81,-1.52 -50.8,-25.4zm-203.2 821.27c-1.15,1.8 -2.3,2.7 -2.58,5.88 -10.63,119.24 -5.89,199.01 -5.89,324.32l-16.93 0c-4.27,-51.31 -52.36,-161.15 -70.93,-216.94 -23.95,-71.97 -56.75,-153.55 -73,-223.33l-16.94 0c-15.93,68.39 1.71,45.46 -21.36,72.17 -20.91,24.21 -33.88,19.35 -63.3,12.5l9.24 -17.59c13.38,-41.71 -3.58,-22.94 -26.18,-7.81 -1.38,-61.86 -0.38,-19.41 -21.94,-37.88l-18.71 -21.75c-6.3,-6.76 6.53,2.39 -10.93,-8.21l-21.11 -11.29c-23.7,-15.37 -3.31,-13.38 -37.38,-22.47l0 -16.94c44.77,-10.42 49.71,-1.45 50.8,-50.8 -35.09,9.37 -59.53,32.55 -67.73,67.74 -43.97,0 -93.6,-4.29 -114.46,-36.62l-4.32 -7.96c-20.77,-32.85 0.74,20.01 -16.69,-23.16 41.6,-30.47 7.39,-57.73 76.2,-59.26 -8.38,-31.39 -8.55,-10.95 -16.93,-42.34 -51.22,16.99 35.38,-2.77 -33.87,33.87 -4.24,-51.02 -13.21,-27.94 0,-84.67 1.32,1.52 3.17,2.05 3.72,4.75 0.55,2.7 2.96,3.79 3.73,4.73 5.18,6.29 5.3,7.86 11.48,13.93 19.19,18.85 7.93,12.53 31.87,18.93 16.63,14.45 32.28,29.92 50.8,42.33 14.74,-40.7 2.2,6.84 16.94,-33.87 40.85,29.93 15.27,33.47 18.89,68.95 4.78,46.99 32.82,14.93 65.77,7.25 6.41,11.41 4.63,9.36 8.47,25.4l25.4 0c4.5,-19.3 6.57,-19.47 8.47,-42.33 32.83,8.77 32.99,11.43 33.87,50.8 68.61,-15.99 16.24,-37.83 -6.1,-138.73 -16.05,-72.54 -114.83,-333.97 -147,-436.31 -12.79,-40.69 -10.11,-51.48 -66.27,-52.26 -54.91,-0.76 -179.54,-5.03 -227.83,2.3 -41.09,6.24 -52.34,13.9 -53.11,65.44 -0.57,38.21 3.07,78.93 4.43,113.16 6.05,152.19 -10.33,357.46 -2.94,497.03l-0.78 1329.5c-0.65,96.9 -15.31,114.98 118.31,118.75 71.12,2.01 172.66,10.85 220.42,-0.28 24.01,-103.06 8.46,-439.26 8.46,-575.73l-25.4 0c10.36,-7.83 -9.51,-5.49 25.4,-8.47l0 -584.2c23.24,26.74 52.07,135.11 64.54,172.53l184.19 552.41c41.58,124.69 79.12,237.27 120.61,361.99 27.9,83.87 17.92,116.48 129.9,115.63 85.63,-0.65 151.54,17.73 228.9,-0.29 3.55,-42.68 8.6,-71.2 8.48,-126.99l-0.01 -965.21c-67.43,1.5 -78.34,30.52 -118.54,33.86 7.56,-28.31 8.19,-27.25 36.12,-40.08 7.57,-3.48 4.88,-0.95 12.24,-4.69 21,-10.69 64.07,-64.61 66,-69.47 10.56,-26.48 4.75,-126.41 1.85,-162.91l2.33 -484.85c-40.6,9.72 -13.16,5.77 -25.4,0 18.9,-28.23 21.22,-10.83 25.59,-50.61 2.09,-19.14 -0.14,-55.36 0.09,-76.64 1.18,-111.71 -7.45,-63.82 -68.02,-92.88 23.45,-32 23.99,-17.95 50.8,0l6.15 -26.18c44.49,-169.3 -49.64,-117.26 -192.41,-117.75 -58.18,-0.19 -90.4,4.71 -135.47,8.46 -26.84,115.19 -8.47,576.82 -8.47,736.6l42.34 0c-3.15,37.83 -25.39,50.9 -42.34,76.2 18.19,54.87 -1.26,-29.46 16.94,25.4l-8.47 16.94z"/>
  <path class="fil0" d="M7157.23 13911.04c0,-21.65 13.4,-1.36 5.03,0 -0.1,0.02 -5.03,23.64 -5.03,0zm-143.94 -609.6l2.53 2.53c-0.17,-0.17 -3.37,-1.68 -2.53,-2.53zm0 -143.93c2.17,-17.41 44.71,2.08 7.93,0.8 -3.24,-0.11 -10.28,18.18 -7.93,-0.8zm50.8 -33.87l2.53 2.53c-0.17,-0.17 -3.37,-1.68 -2.53,-2.53zm-135.46 -474.13c33.86,2.82 35.87,5.03 50.8,25.4 -33.86,-2.82 -35.87,-5.03 -50.8,-25.4zm127 -8.47c0,-21.65 13.4,-1.36 5.03,0 -0.1,0.02 -5.03,23.64 -5.03,0zm-76.2 -8.46l0 0zm0 0c-8.59,-11.36 -8.47,17.8 -8.47,-25.4 22.38,16.16 18.34,1.5 8.47,25.4zm135.46 8.46l-16.93 0c-5.64,-23.56 -29.47,-62.46 33.87,-67.73 -3.39,40.75 -13.45,26.87 -16.94,67.73zm-84.66 -59.26l0 25.4c-39.38,-10.52 -35.94,-14.77 0,-25.4zm-76.2 0l2.52 2.52c-0.16,-0.16 -3.36,-1.68 -2.52,-2.52zm-93.14 0l2.53 2.52c-0.17,-0.16 -3.37,-1.68 -2.53,-2.52zm101.6 -16.94l2.53 2.53c-0.17,-0.17 -3.37,-1.68 -2.53,-2.53zm635.01 -76.2l16.93 0 9.75 50.52c-36.03,-9 -26.68,-6.03 -26.68,-50.52zm33.86 8.47l2.53 2.52c-0.17,-0.16 -3.37,-1.68 -2.53,-2.52zm-50.8 -101.6c-3.03,-16.02 10.66,-30.11 5.36,-5.36 -0.12,0.58 0.24,34.92 -5.36,5.36zm-592.67 -16.93l33.54 9.5c-18.5,25.03 3.74,15.32 -33.54,7.43l0 -16.93zm-59.26 0l2.52 2.52c-0.16,-0.16 -3.36,-1.68 -2.52,-2.52zm846.67 -25.4l2.52 2.52c-0.17,-0.16 -3.37,-1.68 -2.52,-2.52zm-753.54 -42.34c45.45,-21.8 25.19,-2.1 42.53,5.11 24.87,10.33 22.08,-14.65 35.15,7.67 20.54,35.07 -60.41,10.8 -77.68,-12.78zm635 -25.4c36.23,9.68 38.67,36.98 59.27,67.74 -26.66,-6.21 -22.23,-3.18 -37.84,-21.43 -18.06,-21.1 -12.6,-26.55 -21.43,-46.31zm-711.2 8.47l2.53 2.52c-0.17,-0.16 -3.37,-1.68 -2.53,-2.52zm626.54 -8.47c6.81,-25.5 -0.11,-18.59 25.4,-25.4 -9.77,36.56 4.07,12.05 -25.4,25.4zm304.8 -42.33l2.52 2.52c-0.17,-0.16 -3.37,-1.68 -2.52,-2.52zm-186.27 -8.47l2.53 2.53c-0.17,-0.17 -3.37,-1.68 -2.53,-2.53zm-220.13 -67.73l2.52 2.52c-0.17,-0.16 -3.37,-1.68 -2.52,-2.52zm-152.41 -59.27c0.85,-0.84 2.53,1.34 2.53,2.53l-2.53 -2.53zm-118.53 -33.86c22.22,16.27 11.56,13.3 42.33,59.26l-13.88 19.99c-15.27,20.41 7.07,2.53 -19.98,22.35 -17.51,-42.39 16.58,1.49 2.89,-46.15 -11.22,-39.05 -26.02,1.52 -11.36,-55.45zm541.87 16.93l2.53 2.52c-0.17,-0.16 -3.37,-1.68 -2.53,-2.52zm-558.8 -50.8c0,43.9 7.55,32.86 -16.94,50.8 -6.66,-31.46 -9.41,-31.49 16.94,-50.8zm-50.8 25.4l-8.47 8.47 8.47 -8.47zm0 0l0 -25.4 16.93 0c-5.92,24.75 1.09,12.2 -16.93,25.4zm15.89 -34.2l0 0zm-61.29 -102.84c3.06,74.52 17.11,46.4 28.46,77.77 -20.17,-4.7 -42.57,-8.92 -59.26,-16.93l30.8 -60.84zm206.26 -15.36c26.02,19.06 13.67,-5.45 16.94,33.87 -44.72,-23.66 -15.98,0.82 -16.94,-33.87zm-110.06 -16.93l9.73 16.51 -9.73 -16.51zm194.73 0l2.53 2.52c-0.17,-0.16 -3.37,-1.68 -2.53,-2.52zm-338.67 -8.47c22.87,1.9 23.04,3.97 42.34,8.47l-23.59 27.21c-15.3,-21.96 -12.06,-10.63 -18.75,-35.68zm143.94 8.47l-33.54 9.5c8.48,-22.86 -11.71,-7.57 11.46,-14.06 37.53,-10.51 13.8,-0.69 22.08,4.56zm-143.94 -8.47l0 0zm84.67 186.27c0.84,37.46 8.47,59.81 8.47,110.06 29.58,7.9 19.01,3.22 33.86,25.4 -19.93,-4.64 -25,-7.89 -50.8,-8.46 -2.91,34.98 -7.75,17.56 -7.64,50.75 0.11,32.24 6.79,20.84 7.64,59.31 -28.44,-15.05 -15.76,-0.69 -33.86,-25.4 -25.41,11.76 -17.63,2.76 -50.8,0 17.4,-48.06 -22.24,39.38 11.26,-16.14 28.9,-47.9 -7.16,-23.34 -28.2,-9.26l0 -33.86c-11.3,16.27 -6.26,17.67 -25.4,25.4 -24.13,-32.94 -13.33,-0.54 -25.4,-33.87 11.41,6.41 9.36,4.63 25.4,8.47 -10.78,-22.48 -7.72,-9.06 -8.46,-42.34 -32.28,14.93 -13.66,12.42 -40.65,-9.25 -13.83,-11.11 -25.8,-19.78 -35.55,-33.08 41.74,-9.72 49.27,-7.88 59.26,-50.8 -43.97,10.25 -57.65,32.68 -76.2,67.73l-50.51 -9.75 -3.66 306.09 0.69 287.86 1.45 84.67 -2.01 59.27c14.93,100.33 -4.21,82.05 5.37,150.29 2.05,14.59 11.14,55.81 9.14,68.41 -0.23,1.44 -1,3.71 -1.34,5.14 -23.16,96.38 -9.93,292.22 -9.93,411.16 0,176.4 -6.16,409.92 233.34,460.93 85.97,18.31 226.66,7.78 318.24,-2.5 144.34,-16.2 381.27,25.96 476.74,-217.52 37.7,-96.14 31.69,-188.44 29.68,-317.11l-0.78 -203.2c5.43,-105.69 12.28,-347.57 -7.35,-431.8 -100.14,-23.33 -274.78,-8.47 -392.72,-8.47 -26.94,12.34 -59.68,-1.49 -98.34,15.59 -13.57,30.86 -8.47,84.03 -8.47,128.34l-33.87 0c30.94,46.2 35.23,11.38 34.29,92.72 -0.62,53.61 -2.04,75.68 8.05,118.95 75.05,17.49 95.21,1.46 160.86,0 0,95.95 -0.12,191.92 0.01,287.87 0.15,121.21 5.08,175.52 -118.2,178.14 -296.94,6.33 -254.34,35.74 -254.34,-313.61 -4.08,0.09 -100.94,26.03 -84.67,-50.8 -26.13,12.54 -100.53,41.74 -127,42.33 6.81,-18.8 16.48,-25.87 38.84,-37.36 70.99,-36.46 65.01,-98.1 147.43,-98.1 0.85,-38.39 -0.82,-28.13 20.41,-50.8 -0.96,-40.83 -10.2,-109.18 4.99,-141.01l-2.59 -299.26c-7.78,-45.41 11.26,-45.51 -27.3,-64.14 1.8,-2.06 4.86,-7.39 5.72,-5.89 0.09,0.15 19.69,-10.87 14.58,-56.97 -18.12,29.8 5.27,12.21 -24.28,33.87 -10.38,-21.64 -12.69,-8.99 -2.35,-35.56 4.92,-12.66 18.56,-25.44 27.75,-32.18 22.58,-47.05 -10.2,-35.86 2.21,-81.69 24.03,-88.75 -28.11,-196.36 49.26,-230.9 23.4,-10.45 56.16,-8.25 89.04,-11.96l26.66 -4.72c39.39,-7.33 149.09,39.73 181.28,8.56 0.94,-0.9 2.89,-3.76 3.63,-4.57 0.76,-0.84 2.2,-3.39 3.52,-4.92 0,93.22 23.37,-2.06 25.24,161.26l1.39 167.7c10,51.18 55.99,35.12 151.17,35.11 232.41,-0.03 186.27,40.64 186.27,-228.6 0,-180.32 -3.87,-384.43 -230.28,-455.52 -126.63,-39.77 -275.29,-11.24 -408.43,-32.11l-67.91 1.55c-44.67,9.89 4.63,-16.23 -111.23,6.88 -51.73,10.31 -124.83,47.63 -147.35,81.27 66.6,1.48 25.89,19.7 84.66,50.8 -5.53,15.29 -2.71,7.94 -9,16.39 -4.12,5.53 -11.91,12.75 -16.4,17.47 16.47,24.59 17.14,11.37 25.4,42.34 -27.93,-7.46 -53.65,-50.53 -59.26,16.93 1.3,0.61 3.81,-1.09 4.28,0.44 7.92,25.54 -7.07,-8.27 23.15,6.49 15.01,7.33 -2.94,9.19 31.83,18.47 10.79,-22.47 7.73,-9.06 8.47,-42.33l33.87 0c0,34.4 -2.83,27.26 8.46,50.8 20.06,-10.62 34.53,-19.64 59.27,-25.4z"/>
  <path class="fil0" d="M6081.96 12666.44l2.53 2.53c-0.17,-0.17 -3.37,-1.68 -2.53,-2.53zm-42.33 -8.46c5,-2.22 -9.34,-24.32 14.85,2.89 15.74,17.72 7.64,-3.98 10.55,30.97 -18,-4.8 -10.68,0.91 -21.99,-12.48 -10,-11.83 -1.2,-16.43 -3.41,-21.38zm-110.07 76.2l-8.47 0c0,-133.06 2.37,-44.7 55.21,-105.27 21.2,-24.31 -1.37,-18.46 37.93,-21.73 -49.12,73.34 -84.67,49.38 -84.67,127zm110.07 -143.94l0 0zm-440.27 -67.73c-7.53,32.3 -17.87,35.43 -25.4,67.73 -19.3,-4.49 -19.47,-6.56 -42.33,-8.46l28.26 -14.07c1.18,-0.59 3.83,-1.74 5.6,-2.87 -80.52,-1.79 -12.11,-11.54 33.87,-42.33zm42.33 135.47c-5.18,22.26 -7.7,24.88 -16.93,42.33 -14.25,-7.07 -14.88,-7.79 -25.4,-16.93l-16.49 -9.19c5.33,-11.31 10.52,-16.52 5.85,-36.52 -11.82,-50.59 2.56,30.22 -14.76,-22.03l41.37 -68.31c14.86,-23.12 9.28,-15.36 25.97,-34.34 21.31,-24.23 19.56,4.65 8.86,-41.28 -27.28,7.28 -12.51,0.97 -29.29,21.51l-21.51 29.29c1.44,-64.8 67.04,-127.09 76.2,-152.4l-33.54 -9.5c-31.26,21.75 -16.5,24.2 -42.66,43.37 -7.66,-15.45 -6.53,-10.59 -8.47,-33.87 -14.21,7.52 -18.79,11.92 -31.11,19.69 -24.17,15.24 1.23,11.03 -36.62,14.18 29.6,-28.08 23.38,-29.57 67.73,-59.27 16.25,-24.27 21.5,-30.72 59.27,-33.87l0 42.34c17.7,-11.85 20.24,-39.9 59.27,33.86l-50.8 76.2c52.7,-1.17 39.97,-18.07 76.2,-42.33 16.14,40 11.03,-10.9 36.76,30.97 6.93,11.28 3.86,-0.67 5.57,19.83l-33.87 -25.4c-9.23,17.45 -11.74,20.07 -16.93,42.33l42.33 4.24c0.76,29.55 3.91,27.11 16.94,46.56 -63.92,42.8 -19.61,99.78 -101.6,101.6 5.65,67.94 42.33,36.99 42.33,127l73.57 -24.19c1.13,-0.4 3.45,-1.25 4.58,-1.73 13.01,-5.49 -2.83,1.53 14.34,-8.04 1.52,-0.84 3.71,-2.18 5.28,-3.06 1.61,-0.91 3.86,-2.12 5.5,-3.06 31.29,-17.84 32.98,-15.8 40.66,-44.58l35.75 31.98c-27.67,2.46 -32.75,5.71 -52.68,10.35 -8.83,37.92 0.81,41.93 -5.85,63.45 -15.33,49.49 -16.7,-12.47 -11.08,55.08 -21.99,-23.17 -13.51,-11.57 -42.34,-25.4 -8.78,32.91 -23.78,31.57 -42.33,59.27 11.88,50.98 33.87,66.21 33.87,127 -70.22,-1.56 -35.62,-14.77 -51.14,-67.53 -14.86,-50.51 -3.48,-22.03 0.34,-67.94 -36.57,3.05 -33.03,4.79 -33.87,42.34 -100.14,0 -46.16,22.31 -82.4,12.28 -28.33,-7.85 -19.2,-55.9 -19.2,-88.48 25.8,-10.66 1.98,-3.36 42.33,0l0 -127c17.35,24.96 5.46,32.48 42.34,42.33 -1.17,-52.18 -16.94,-35.14 -16.94,-101.6 -11.41,6.41 -9.35,4.63 -25.4,8.47zm88.46 -372.54c-2.62,-27.61 -0.99,-67.19 13.14,-88.76l25.4 38.68c14.03,-18.63 8.88,-15.73 35.88,-28.21l24.9 35.96c-1.84,1.38 -4.77,2.46 -6.09,3.26l-28.92 23.09c-7.13,8.87 -10.28,19.68 -25.47,32.97 -16.42,14.37 -16.84,8.37 -33.74,26.14 -12.46,13.1 -8.66,15.04 -23.3,31.03 -21.35,-26.98 -64.18,-61.58 -46.42,-97.03 25.37,13.72 26.86,11.84 23.24,49.72 29.71,-30.98 22.09,-16.44 41.38,-26.85zm-222.84 -364.06l-0.21 287.86 -0.66 279.4 1.1 8.47 -1.43 160.87c0.91,172.85 -15.68,1371.84 8.58,1422.4 45.64,21.89 281.42,-5.57 330.2,-16.94 20.61,-88.43 8.47,-1076.17 8.47,-1253.06 13.92,16.01 12.4,13.42 20.35,38.91l42.2 135.6c22.11,66.47 37.27,121.02 59.19,186.35 42.81,127.63 75.96,245.01 118.52,372.54 40.84,122.37 89.34,250.73 122.02,369.05 38.33,138.82 35.22,130.51 103.41,126.09 84.53,-5.48 151.12,-9.34 237.04,-9.34l23.59 -27.22 1.81 -1073.45c-49.09,35.97 4.91,49.7 -44.75,83.25 -13.67,9.23 -32.22,19.47 -48.72,2.93 -21.61,-21.64 -2.19,-8.81 17.27,-35.38 -36.4,3.03 -15.25,-1.2 -42.33,16.93 4.04,-48.49 15.2,-19.91 -5.28,-37.83l-104.79 -72.23c28.29,-38.61 54.52,-10.64 59.27,-67.74 -39.41,10.53 -58.82,34.9 -76.2,67.74 -106.99,0 -46.06,-12.31 -101.6,-16.94l0 152.4c-20.82,-23.96 -35.16,-84.23 -45.53,-115.34 -14.51,-43.52 -27.34,-78.58 -40.21,-120.65 -14.39,-47.01 -74.35,-220.32 -75.13,-255.07l-10.82 -8.47 -38.67 -130.49 -41.05 18.17c2.45,-40.58 4.62,-3.18 32.57,-40.08 -16.09,-50.23 -58.73,-164.77 -61.01,-211.67 -14.97,-22.67 -17.43,-48.19 -25.96,-75.19 -7.86,-24.87 -21.68,-53.98 -24.39,-84.21 -38.79,-57.75 -39.32,-172.36 -80.73,-221.6 -50.07,-18.96 -201.73,-11.28 -274.87,-19.33l-33.27 10.93c-11.98,43.12 -8.66,101.83 -7.98,152.34z"/>
  <path class="fil0" d="M13642.7 13690.91c51.6,27.3 74.51,4.73 93.13,84.67l-33.53 -9.51c14.28,63.75 31.8,33.85 -34.2,68.77 -28.3,-121.47 -8.47,-42.67 -8.47,-101.6 0,-14.9 -11.42,0.65 -16.93,-42.33zm-33.87 16.93c0.85,-0.84 2.52,1.34 2.53,2.53l0 0c-0.17,-0.17 -3.37,-1.68 -2.53,-2.53zm-347.13 -16.93c23.13,8.37 17.41,-0.44 25.4,33.87 -33.64,-22.53 -12.15,-8.66 -25.4,-33.87zm-33.87 -338.67c20.15,-13.48 8.82,-10.24 33.87,-16.93 0,39.92 1.51,37.88 8.47,67.73 -20.48,-7.41 -10.67,-3.43 -22.95,-19.39 -3.08,-4 -16.32,-26.82 -19.39,-31.41zm-59.26 -16.93c0,-47.98 -7.38,-32.52 16.93,-42.33l-14.18 36.63c-0.56,1.25 -1.51,3.99 -2.75,5.7zm-33.87 -50.8c0.84,-0.84 2.52,1.33 2.52,2.53l-2.52 -2.53zm25.4 -16.93c0,-33.43 2.66,-34.36 8.47,-59.27 26.21,-2.23 16,0.1 33.86,-8.47 -0.94,42.29 -8.06,58.59 -42.33,67.74zm93.13 -50.8l2.53 2.52c-0.17,-0.16 -3.37,-1.68 -2.53,-2.52zm-67.73 -93.14l2.53 2.53c-0.17,-0.17 -3.37,-1.68 -2.53,-2.53zm220.13 -84.66c0.85,-0.85 2.52,1.33 2.53,2.52l0 0c-0.17,-0.16 -3.37,-1.68 -2.53,-2.52zm-59.26 -101.6c40.03,0.89 33.25,-8.62 42.33,25.4 -30.81,-7.18 -27.15,-4.68 -42.33,-25.4zm42.33 -50.8c47.7,68.65 14.26,3.46 42.33,42.33l-33.86 0c-10.92,-22.76 -7.55,-8.97 -8.47,-42.33zm-143.93 25.4l2.52 2.52c-0.16,-0.16 -3.36,-1.68 -2.52,-2.52zm127 -42.34l2.52 2.53c-0.16,-0.17 -3.36,-1.68 -2.52,-2.53zm-93.14 0c0,-21.65 13.41,-1.36 5.04,0 -0.1,0.02 -5.04,23.64 -5.04,0zm101.6 -25.4c0.85,-0.84 2.52,1.34 2.53,2.53l-2.53 -2.53zm-177.8 -16.93c32.11,3.51 24.87,-4.78 33.87,33.87l-33.87 -33.87zm846.67 -42.33l2.53 2.52c-0.17,-0.16 -3.37,-1.68 -2.53,-2.52zm-211.67 50.8c-19.27,-12.91 -37.56,-39.5 -50.8,-59.27 22.47,-11.89 36.81,-21.98 59.27,-33.87 -4.15,49.83 -19.74,44.74 -8.47,93.14zm160.87 -152.4c-3.03,-16.03 10.66,-30.11 5.36,-5.36 -0.12,0.57 0.24,34.91 -5.36,5.36zm-651.93 -16.94l2.52 2.53c-0.16,-0.17 -3.36,-1.68 -2.52,-2.53zm491.06 -50.8c34.02,9.09 24.51,2.3 25.4,42.34l-21.84 -28.96c-9.03,-21.85 1.53,16.39 -3.56,-13.38zm110.07 -16.93l2.53 2.52c-0.17,-0.16 -3.37,-1.68 -2.53,-2.52zm42.33 -42.33c43.21,0 14.05,-0.12 25.4,8.46 -44.76,0 -12.62,-0.06 -25.4,-8.46zm-880.53 -25.4l2.53 2.52c-0.17,-0.16 -3.37,-1.68 -2.53,-2.52zm262.47 -25.4c21.57,1.79 59.52,10.07 43.72,25.87 -10.74,10.73 -31.32,-15.1 -43.72,-25.87zm558.8 -8.47c-3.04,-16.02 10.66,-30.11 5.36,-5.36 -0.13,0.58 0.23,34.92 -5.36,5.36zm-42.34 -42.33c0.85,-0.85 2.52,1.33 2.53,2.52l-2.53 -2.52zm-728.13 -110.07l2.53 2.52c-0.17,-0.16 -3.37,-1.68 -2.53,-2.52zm778.93 -169.33c-9.8,20.44 -14.44,38.56 -25.4,59.26 -22.47,-10.78 -9.06,-7.72 -42.33,-8.46 3.53,-42.4 28.31,-41.62 67.73,-50.8zm67.74 -270.94c26.24,17.57 41.36,26.7 8.46,50.8 -11.29,-23.54 -8.46,-16.39 -8.46,-50.8zm-16.94 651.94c-21.89,23.08 5.38,18.12 -23.59,12.89 -44.61,-8.04 -10.51,-88.08 -10.27,-89.09l33.86 0c0,-42.37 -8.46,-65.4 -8.46,-118.54 27.68,20.29 6.11,14.7 42.33,33.87 0,-55 -15.83,-52.28 -16.93,-101.6 -32.89,22.03 -17.91,28.77 -50.8,50.8l-16.94 -25.4c-44.37,-14.71 18.5,-8.36 -11.05,-43.13l-10.54 -6.37c-0.49,-0.26 -2.63,-0.65 -3.81,-1.3l23.63 -42.78c0.49,-0.84 1.59,-3 2.11,-3.84 50.45,-81.69 66.58,-72.19 50.46,-105.78 -37.62,25.19 -27.47,32.43 -50.8,59.27 0.99,-44.47 25.71,-74.95 47.83,-121.51l19.91 -39.36c-6.31,-4.77 -16.34,-14.87 -34.37,-1.73 -11.94,8.7 -12.85,20.24 -16.43,35.6 -30.59,-8.17 -17.35,-16.79 -25.4,-33.87 -27.63,18.5 -19.54,24.61 -59.27,33.87 16.67,-31.51 71.98,-91.91 127,-93.14 6.7,15.14 3.43,-10.67 -8.47,33.87 52.82,-12.31 45.19,9.89 67.74,42.33 -16.5,24.64 -41.63,49.86 -59.27,76.2 30.34,-0.67 58.4,-7.37 67.73,-42.33 27.08,18.13 5.93,13.9 42.34,16.93l0 -135.46 -57.61 52.51c-7.59,-26.47 -0.57,-13.91 -18.59,-27.11 32.79,-48.97 6.1,-18.9 42.33,-33.87 0,-42.86 5.75,-43.55 8.47,-76.2 -388.02,0 -312.46,-74.28 -313.27,491.07 -0.04,23.17 -1.83,54.69 -0.12,76.83 4.2,54.72 15.37,21.55 7.16,57.54l-7.28 68.56c0.16,27.18 -1.53,59.27 -0.37,85.55 3.42,77.17 13.43,10.75 16.99,67.37 1.6,25.52 -12,41.53 -15.48,68.37 -7.64,59.11 -5.16,315.11 4.27,392.43l-5.17 233.21c0.01,47.85 5.86,116.48 -11.95,148.92 -25.56,46.53 -60.68,34.57 -123.56,37.32 -38.43,1.69 -30.16,7.24 -65.23,10.74 -22.43,2.24 -23.73,-0.96 -57.5,-14.6 -108.45,-43.8 -43.01,-2.75 -122.76,3.89 8.52,-31.92 21.85,-39.22 59.27,-42.33 0,-40.78 -10.83,-57.15 -12.42,-95.18l3.23 -269.06c3.26,-61.6 6.75,-231.48 -6.32,-288.79 -7.97,-34.95 7.81,-8.07 7.28,-91.77 -0.25,-39.61 -0.24,-79.19 -0.24,-118.8l-33.87 0 0 -25.4c34.09,9.1 12.9,17.74 33.87,8.46l0 -762 -27.21 -23.58c-63.08,-1.82 -246.03,-14.42 -286.63,6.07 -50.85,25.68 -33.29,169.96 -33.29,263.05l0.39 956.79c6.59,52.45 17.5,15.37 10.24,53.24 -32.1,167.45 6.33,118.6 -8.81,209.73l-1.87 194.22c4.62,89.82 27.97,173.84 67.52,228.81 68.99,95.85 180.02,136.66 305.06,135.21 61.61,-0.72 84.4,8.9 143.74,8.66 152.83,-0.62 359.45,29.58 449.21,-143.84 72.01,-139.12 50.52,-355.43 50.52,-542.16 0,-200.37 0,-400.75 0,-601.13 -20.14,-13.49 -8.82,-10.25 -33.87,-16.93 8.32,-11.52 3.37,-9.38 22.74,-9.61 40.79,-0.49 -19.72,14.79 11.13,1.14 0,-81.18 -14.82,-17.05 -34.1,-84.43 -5.55,-19.39 3.71,-9.21 -8.24,-34.1 -51.15,37.48 10.6,46.17 -42.33,50.8l-33.87 0z"/>
  <path class="fil0" d="M12465.83 13851.78c23.85,0 15.68,3.66 25.4,16.93 -25.41,11.75 -17.62,2.76 -50.8,0 9.92,-14.27 1.22,-16.93 25.4,-16.93zm-414.86 -287.87c9,-9 32.11,13.44 9.43,4.4 -0.2,-0.08 -23.61,9.78 -9.43,-4.4zm-16.94 -8.47l2.53 2.53c-0.17,-0.17 -3.37,-1.68 -2.53,-2.53zm643.47 -355.6l0 16.94 -25.4 0c13.35,-19.21 1.6,-9.9 25.4,-16.94zm-101.6 -169.33c39.32,3.27 14.81,-9.08 33.87,16.93 -39.32,-3.27 -14.81,9.08 -33.87,-16.93zm101.6 -33.87l-5.01 11.92c-13.29,26.54 -2.71,17.46 -20.39,30.42 -16.67,-34.75 -11.43,-40.58 -8.47,-76.2l16.94 0c6.68,25.04 3.44,13.72 16.93,33.86zm-67.73 -16.93l2.52 2.52c-0.16,-0.16 -3.37,-1.68 -2.52,-2.52zm-1.04 -67.4l17.97 -0.33c0,4.71 0.17,13.82 -0.56,16.36 -4.32,14.98 -2.77,9.4 -7.91,17.5l-9.5 -33.53zm144.97 -8.8l2.53 2.52c-0.17,-0.16 -3.37,-1.68 -2.53,-2.52zm-194.73 16.93l0 -33.86 33.86 0c-8.21,30.74 -4.5,25.18 -33.86,33.86zm76.2 -59.26l2.52 2.52c-0.16,-0.16 -3.37,-1.68 -2.52,-2.52zm-25.4 -33.87c-9.28,34.74 -6.14,29.76 -33.87,16.93 19.12,-26.1 -5.49,-13.58 33.87,-16.93zm-601.14 -8.47c-4.78,20.53 -8.86,33.98 -16.93,50.8l-50.8 0c10.25,-38.39 29.3,-41.84 67.73,-50.8zm541.87 -16.93c18.71,13 10.52,1.39 16.93,25.4l-16.93 0 0 -25.4zm228.6 0c9,-9 32.12,13.44 9.43,4.4 -0.19,-0.08 -23.61,9.78 -9.43,-4.4zm-186.27 -33.87l16.94 0 0 42.34c-24.9,-18.25 -15.73,1.29 -16.94,-42.34zm237.07 8.47l2.53 2.52c-0.17,-0.16 -3.37,-1.68 -2.53,-2.52zm-296.33 -42.33l2.52 2.52c-0.16,-0.16 -3.37,-1.68 -2.52,-2.52zm-575.74 -50.8l-16.51 9.73 16.51 -9.73zm736.6 -16.94c36.39,19.25 15.38,-2.29 25.4,25.4 -35.32,-9.43 -13.94,-3.59 -25.4,-25.4zm-101.6 -33.86c33.1,2.75 25.72,-5.13 33.87,25.4 -49.52,-4.12 -18.97,2.95 -33.87,-25.4zm-508 -84.67c26.36,19.31 23.6,19.34 16.94,50.8 -25.02,-16.75 -34.43,-18.49 -16.94,-50.8zm-25.4 397.93l-9.5 33.54c-54.1,-0.9 -42.7,-9.16 -43.76,-36.25 -3.22,-81.93 -12.58,28.28 -14.47,-56.55l25.4 0c-6.91,-12.31 -4.11,-8.97 -8.47,-25.4 32.03,-21.45 16.78,-17.01 38.01,-47.06 25.83,-36.56 30.06,-12.98 21.26,-54.54 -26.46,7.06 -18.69,8.05 -33.07,26.19l-26.2 33.07c3.31,-39.76 42.18,-111.84 69.21,-142.45 19.12,-21.64 0.32,19.09 15.46,-18.41 -19.93,-4.65 -25.01,-7.9 -50.8,-8.47 -5.19,22.27 -7.7,24.88 -16.93,42.33 -22.42,-9.05 -15.8,17.42 -16.94,-33.86 -20.12,10.64 -28.86,19.54 -50.8,25.4 3.37,-30.79 -0.48,-17.44 17.87,-32.94 9.91,-8.37 21.47,-11.8 32.93,-17.86 17.6,-26.29 16.88,-32.93 59.27,-33.87 4.95,10.51 2.99,-1.62 2.58,12.53 0,0.22 -2.35,18.54 -2.58,21.34 51.1,-11.91 34.81,-3.9 59.27,42.33l-50.8 76.2c36.9,-3.07 31.35,-6.25 53.18,-24.25 40.73,-33.6 -3.87,-6.87 48.42,-1.15l0 -127c-27.57,7.36 -34.98,14.77 -42.34,42.33l-32.56 -26.84c16.83,-25.63 12.6,-4.49 15.63,-40.89 24.38,16.33 14.43,20.54 33.87,0 -9.22,-39.57 0,-32.57 0,-84.67 40.6,9.72 13.16,5.77 25.4,0 0,-287.28 -17.78,-261.56 194.76,-262.49 185.95,-0.81 143.9,37.67 143.9,313.29 0,104.43 0,208.85 0,313.27l25.4 16.93c-42.62,11.38 -25.4,56.46 -25.4,169.34l0.03 389.49c0.71,161.55 -17.33,148.31 -246.1,144.45 -111.17,-1.88 -93.3,-81.53 -92.56,-195.31l-1.55 -74.88c-4.48,-17.09 -3.92,-9.05 -8.44,-17.4 -23.96,-44.23 -3.29,-13.61 -15.91,-60.12 -7.95,-29.28 -7.09,12.42 -5.97,-39.7 0.54,-25.45 16.15,2.84 -2.03,-36.47 -25.74,17.24 -24.51,10.67 -25.4,50.8 -109.48,0 -44.53,35.64 -87,10.47 -23.07,-13.67 -14.6,-62.34 -14.6,-95.13 22.86,1.9 23.03,3.97 42.33,8.46l15.67 -100.33c17.05,18.39 1.84,9.04 26.67,15.67 -3.73,-44.83 -16.94,-41.85 -16.94,-101.6 -22.41,5.94 -6.96,-0.68 -25.4,8.46zm533.4 -440.26c40.44,0 35.11,5.75 67.74,8.46 -15.22,21.9 -5.38,23 -67.74,8.47l0 -16.93zm-474.13 8.46l0 0zm0 0c-24.71,-18.1 -10.35,-5.41 -25.4,-33.86 19.3,-4.5 19.47,-6.57 42.33,-8.47 -5.18,22.27 -7.7,24.88 -16.93,42.33zm-42.33 -25.4c-4.65,-19.93 -7.9,-25 -8.47,-50.8 21.81,14.61 33.7,26.12 8.47,50.8zm59.26 -67.73l2.53 2.52c-0.17,-0.16 -3.37,-1.68 -2.53,-2.52zm524.94 -33.87c15.41,-18.45 20.47,-4.26 8.1,8.11 -7.92,7.93 -0.38,14.48 -7.8,-4.57 -0.12,-0.29 0.29,-2.51 -0.3,-3.54zm118.53 -16.93l2.53 2.52c-0.17,-0.16 -3.37,-1.68 -2.53,-2.52zm-677.33 25.4c-3.27,-9.24 27.87,-29.85 33.86,-33.87 -5.49,20.57 1.18,12.58 -14.71,28.26 -24.84,24.52 -13.96,7.91 -19.15,5.61zm397.93 -245.53c0.84,-0.85 2.52,1.33 2.52,2.52l0.01 0c-0.17,-0.16 -3.37,-1.68 -2.53,-2.52zm-16.93 -42.34c24.75,5.93 12.19,-1.09 25.4,16.94l-25.4 0 0 -16.94zm194.73 889c38.77,9.04 20.5,9.04 59.27,0l0 -25.4 -33.87 0c32.84,-49.04 13.22,-10.21 62.58,-22.28 21.35,-5.22 24.42,-32.78 81.35,5.35 0,-169.33 0,-338.67 0,-508 0,-181.88 16.57,-335.88 -70.08,-437.91 -100.46,-118.29 -187.61,-112.42 -395.58,-112.42 -208.62,0 -463.07,-24.7 -529.95,232.06 -24.8,95.24 -11.92,1086.1 -11.92,1258.07 0,112.77 -27.39,334.16 93.13,414.87 45.87,-30.72 24.96,-53.83 84.67,-67.74 -17.27,32.64 -22.11,38.56 -13.12,88.88 8.27,46.32 9.38,46.31 51.87,58.64 83.83,24.31 211.75,24.67 309.18,22.28 44.77,-1.1 36.66,-9.09 56.13,-7.96l20.34 5.2c63.11,11 157.64,0.07 201.25,-15.52 253,-90.43 204.08,-346.41 204.08,-676.45 -32.57,-2.71 -57.22,-22.46 -76.2,-50.8 39.13,-9.12 55.62,-6.92 59.27,-50.8 -43.98,10.25 -57.65,32.68 -76.2,67.73 -22.57,-0.5 -31.46,-2.64 -42.72,-3.44 -7.07,-0.5 -23.32,5.28 -49.44,-14.44 -34.44,-25.99 17.78,-28.32 -34.84,-32.92 2.12,-25.46 13.28,-41.33 26.88,-58.38l40.85 -26.28c-18.13,-27.08 -13.9,-5.93 -16.93,-42.34z"/>
  <path class="fil0" d="M8427.23 13462.31c0,-21.66 13.41,-1.36 5.03,0 -0.1,0.02 -5.03,23.63 -5.03,0zm-84.67 -118.53c22.18,14.85 17.5,4.28 25.4,33.86 -35.28,-12.77 -12.15,-4.21 -25.4,-33.86zm-33.86 -93.14c22.41,9.05 15.79,-17.41 16.93,33.87 -5.97,-8.59 -0.32,2.93 -9.44,-15.96 -0.1,-0.2 -6.32,-15.46 -7.49,-17.91zm0 -84.66l0 0zm0 0l0 0zm-50.8 -67.74c9,-9 32.11,13.44 9.43,4.4 -0.2,-0.07 -23.61,9.78 -9.43,-4.4zm-116.85 431.8c6.96,46.06 7.83,19.57 4.42,60.17 -2.01,24.08 -0.18,56.34 -6.11,72.71l0.27 239.39c7.81,64.51 70.61,44.58 203.27,42.94l160.53 -10.33 127 1.31 508 -25.19c22.54,-46.98 7.71,-179.65 8.62,-245.68 0.85,-61.72 15.69,-83.12 -41.41,-85.59 -159.69,-6.93 -443.46,9.54 -627.61,9.54 0,-63.46 -8.98,-492.42 7.54,-508.93 21.41,-21.42 443.13,-0.68 508.93,-16 20.04,-86.06 8.46,-212.77 8.46,-313.27 -61.45,-41.15 -125.18,-25.4 -245.53,-25.4 -93.13,0 -186.27,0 -279.4,0l0 -508c99.92,0 620.88,18.96 660.4,0 22.99,-47.92 8.47,-248.52 8.47,-321.73 -57.38,-27.53 -274.31,-17.11 -364.27,-16.74 -56.13,0.23 -72.99,-8.88 -126.51,-8.95 -80.56,-0.12 -184.68,6.27 -262.31,-0.16 -74.6,-6.17 -170.1,-17.23 -245.98,0.45 -21.45,92.07 -8.47,1057.64 -8.47,1236.13 0,132.53 -8.26,294.48 1.69,423.33z"/>
  <path class="fil1" d="M4735.76 12547.91l0 0zm-1041.4 -67.73l0 33.86c-36.18,-8.43 -27.42,-5.67 -42.34,-33.86 25.83,6.01 20.47,10.11 42.34,0zm8.47 -8.47l-8.47 8.47 8.47 -8.47zm338.66 -33.87l0 0zm397.94 -16.93c24.16,5.78 12.74,-1.28 25.4,16.93 -24.76,-5.92 -12.2,1.09 -25.4,-16.93zm423.33 -42.33l0 0zm-186.27 -42.34l-8.46 8.47 8.46 -8.47zm8.47 -8.46l-8.47 8.46 8.47 -8.46zm0 0l0 0zm-110.07 -279.4l0 0zm8.47 -8.47l-8.47 8.47 8.47 -8.47zm-59.27 -237.07c18.1,-24.7 5.42,-10.34 33.87,-25.4 -8.21,35.26 -2.54,32.9 -33.87,25.4zm-821.26 668.87c3.71,-43.56 -8.3,-15.99 16.93,-25.4 18.42,-27.52 23.85,-49.81 59.27,-59.27 -17.44,74.86 17.38,74.22 -13.23,113.38l-29.11 22.09c7.29,27.31 14.81,25.36 25.46,50.74 10.08,24.02 6.04,36.74 16.88,59.33 -30.7,8.19 -51.22,37.65 -25.4,76.2 46.12,-12.32 151.19,-153.8 209.61,-205.26l78.25 -65.68c-12.95,55.61 -188.79,326.76 -236.1,398.9 -14.15,21.56 -10.43,4.92 -17.9,32.9l341.21 -373.83c14.29,-28.42 4.02,-5.2 37.55,-34.41 64.26,-56.01 266,-285.5 340.91,-302.96 -26.69,114.56 -67.73,169.35 -67.73,262.47l-94.33 125.81c-32.46,42.95 -61.32,83.4 -93.25,126.88 -18.62,25.33 -176.63,232.6 -184.96,263.78l601.14 -592.67 -547 748.4c-30.88,46.5 -53.6,80.15 -83.11,128.56 -22.72,37.27 -71.86,99.4 -81.09,139.04 37,-24.78 166.85,-158.89 198.3,-199.63 35.06,-45.4 104.56,-103.82 146.82,-149.51l384.26 -411.61c20.57,-25.93 20.93,-32.88 49.55,-52.05 -7.04,84.57 -93.49,216.55 -144.19,287.62 -15.77,22.11 -17.75,14.87 -25.14,42.58 24.44,-6.53 32.71,-16.82 48.43,-36.23 55.5,-68.56 103.33,-127.09 172.96,-182.64 116.34,-92.81 107.4,-152.31 183.23,-265.51 80.07,-119.52 172.32,-216.32 230.38,-303.02 -19.8,5.29 -137.58,116.07 -170.53,142.74l-168.14 145.13c2.72,-32.68 16.86,-62.02 25.4,-93.14 33.87,-123.45 160.8,-476.05 174.93,-562.99 2.28,-14.02 -1.68,-1.8 3.49,-14.6 6.12,-15.17 20.73,-25.69 24.78,-74.34 -37.15,24.88 -68.68,58.71 -106.46,88.28 -38.3,29.97 -69.19,58.21 -106.4,88.33 -36.58,29.63 -69.06,57.17 -106.25,88.48 -37.55,31.6 -73.62,64.35 -112.69,90.51 2.74,32.89 7.64,22.06 8.47,59.27 -49.18,-13.13 -6.51,-1.49 -25.4,-42.34 -19.66,13.16 -33.36,26.95 -59.27,33.87 8.27,-30.97 8.93,-17.74 25.4,-42.33 -47.38,3.94 -42.33,19.5 -42.33,-42.34 13.47,-6.69 -15.57,-8.67 25.4,0 0,-60.76 -12.62,-58.85 25.4,-50.8 -5.81,-24.91 -8.47,-25.84 -8.47,-59.26 -18.27,4.87 -8.76,3.74 -21.92,11.94 -28.47,17.75 17.97,-0.44 -20.41,13.46 -2.32,-4.83 -5.86,-14.71 -7.5,-17.91 -7.97,-15.66 -3.75,-7.78 -9.44,-15.96 13.53,-37.37 43.57,-66.07 50.8,-93.13 -34.08,9.1 -12.89,17.74 -33.86,8.46 8.56,-12.78 14.33,-21.05 23.78,-36.97 42.2,-71.05 -12.41,-23.04 -27.83,-20.79l-22.66 -1.46c-0.55,-0.02 -3.16,-0.03 -3.6,-0.04 -0.44,-0.01 -2.48,0.48 -3.56,0 18.53,-25.3 4.71,-3.65 37.32,-30.42 12.81,-10.52 -1.47,-0.97 13.48,-11.92l42.33 33.87c-5.85,21.93 -14.75,30.68 -25.4,50.8 60.57,-5.04 4.51,-23.2 67.74,-8.47 -9.42,40.43 8.23,94.31 -50.8,110.07 5.14,61.83 27.75,25.09 16.93,76.2 45.44,-3.78 55.65,-37.43 74.65,-69.28l52.13 -100.27c18.18,-36.19 39.25,-57.72 60.08,-92.33 18.96,-31.51 34.41,-62.63 55.1,-97.3 77.69,-130.17 129.36,-244.99 223.71,-385.89 45.84,30.7 145.3,189.5 181.4,250.4 143.78,242.5 -11.43,174.81 89.81,341.99 25.47,42.04 96.73,136.7 136.27,161.15 -0.68,-50.51 -4,-109.22 7.98,-152.34l33.27 -10.93c-93.12,-146.37 -135.18,-328.8 -211.63,-480.23 -125.05,-247.69 -78.56,-166.39 -125.79,-390.68 -11.1,-52.69 -35.68,-80.19 -85.91,-91.89 -19.56,29.2 -43.32,56.47 -65.57,86.83 -41.09,56.06 -34,127.4 -186.32,279.35 -77.45,77.27 -72.79,81 -129.6,175.2 -55.19,91.51 -101.41,211.8 -171.31,294.36 -27.09,32 -46.17,44.03 -72.58,79.81l-337.78 432.69c-38.95,43.84 -37.84,48.3 -86.71,74.16 -26.82,-50.68 -44.92,-53.71 -89.37,-88.43 -96.41,-75.28 -122.14,-0.63 -302.21,179.45 -53.85,53.85 -136.28,126.11 -180.58,183.49 -29.59,38.31 -162.5,152.16 -172.91,191.16 44.3,3.77 15.31,-8.08 25.4,16.93 30.54,-11.05 0.98,-12.41 42.33,-16.93 20.94,31.26 59.77,74.92 101.6,84.66l0 -50.8c31.88,21.35 36.72,29.02 67.2,-0.11 1.06,-1.01 2.56,-3.21 3.55,-4.17l40.13 -28.26c1.43,-1.12 3.55,-2.58 4.96,-3.77l13.74 -13.05c32.96,-35.22 10.3,-23.55 22.82,-18.37 25.21,9.7 5.8,-3.68 11.17,15.16l2.88 22.47c6.3,18.54 23.1,26.65 36.76,47.04 -9.93,18.76 -20.01,40.68 -37.91,50.6 -22.23,12.3 -26.44,-8.34 -38.3,42.53 37.13,-3.09 98.52,-64.47 101.61,-101.6l-26.3 -16.05c-1.07,-1.01 -3.07,-3.68 -3.91,-4.55 -0.85,-0.88 -2.34,-3.28 -3.66,-4.8 16.42,-24.52 25.8,-22.1 21.71,-55.52 -6.18,-50.52 -24.88,0.64 -30.18,-63.01 -85.27,45.11 -37.38,61.31 -93.13,76.2 17.31,-74.31 25.64,11.46 16.93,-93.14 39.75,29.12 -7.47,19.95 42.33,25.4 22.54,-48.71 -28.81,-1.65 33.37,-50.71 32.65,-25.77 33.79,-41.81 34.37,-67.82l-16.93 0z"/>
  <path class="fil0" d="M15920.24 12039.91c0,-21.66 13.4,-1.36 5.03,0 -0.1,0.02 -5.03,23.63 -5.03,0zm-160.87 -67.73c29.51,7.88 30.99,7.81 33.87,42.33 -7.25,-4.85 -10.72,-4.99 -19.19,-14.68 -21.93,-25.09 -6.67,-12.4 -14.68,-27.65zm245.53 -42.34c31.25,8.35 15.07,1.72 59.27,67.74 -22.55,-1.88 -37.36,-3.26 -52.43,-40.71 -7.58,-18.82 -3.49,-0.91 -6.84,-27.03zm355.6 -8.46c-6.81,25.5 0.11,18.59 -25.4,25.4l25.4 -25.4zm0 0l0 0zm-440.26 8.46c1.63,-19.68 2.16,-42.02 17.38,-26.79 14.72,14.72 -5.8,15.46 -17.38,26.79zm-50.8 -59.26c-29.6,-21.69 -10.77,-28.67 8.46,-50.8 -0.43,19.2 -2.61,37.69 -8.46,50.8zm-177.8 -50.8l16.93 0c-3.27,39.32 9.08,14.8 -16.93,33.86 -17.39,-42.08 1.28,12.69 0,-33.86zm-50.8 -8.47c-15.25,65.45 -15.25,290.15 0,355.6 35.84,-2.98 19.37,9.65 37.61,-38.99l4.98 -12.22c9.77,-21.38 10.96,-1.97 12.28,-30.76 0.04,-0.96 -4.07,-35.51 -4.07,-45.03l16.93 0c15.14,64.99 -20.16,72.53 -25.4,135.47l50.8 0c-4.15,-49.85 -20.71,-20.3 -8.83,-45.04 3.92,-8.17 33.37,-24.92 42.7,-31.16 0,103.48 -21.98,67.73 25.4,67.73l169.33 0 0 1828.8c0,22.87 4.04,23.34 8.47,42.33 38.21,18.34 283.84,36.2 330.2,25.4 4.42,-18.99 8.46,-19.46 8.46,-42.33l0 -1862.67 321.74 -16.93c18.33,-78.67 8.46,-256.78 8.46,-347.13 0,-61.46 -159.74,-27.16 -228.32,-25.13 -95.68,2.84 -166.7,5.05 -263.02,7.92l-507.72 34.14z"/>
  <path class="fil0" d="M6539.16 12666.44c0,42.86 -8.19,47.3 33.87,50.8 -24.02,32.79 -17.24,9.59 -67.74,8.47 8.09,-30.28 11.01,-42.52 33.87,-59.27zm-262.47 -25.4l2.53 2.53c-0.17,-0.17 -3.37,-1.68 -2.53,-2.53zm210.63 -25.07c20.34,4.17 20.51,6.24 43.37,8.14 -14.85,22.18 -4.28,17.5 -33.86,25.4l-9.51 -33.54zm-151.36 8.14c0,-21.66 13.41,-1.36 5.03,0 -0.1,0.02 -5.03,23.63 -5.03,0zm110.07 -42.33l2.52 2.52c-0.16,-0.16 -3.36,-1.68 -2.52,-2.52zm-76.2 -67.74l2.52 2.53c-0.16,-0.17 -3.36,-1.68 -2.52,-2.53zm42.33 -25.4l2.53 2.53c-0.17,-0.17 -3.37,-1.68 -2.53,-2.53zm101.6 -25.4l2.53 2.53c-0.17,-0.17 -3.37,-1.68 -2.53,-2.53zm25.4 -33.86c34.75,9.28 25.4,6.31 25.4,50.8 -22.45,-16.45 -20.91,-15.78 -25.4,-50.8zm-287.87 -8.47l2.53 2.52c-0.17,-0.16 -3.37,-1.68 -2.53,-2.52zm194.74 16.93c7.9,-29.58 3.22,-19.01 25.4,-33.86 -10.22,38.27 -6.47,15.34 -25.4,33.86zm-169.34 -50.8c1.66,-1.65 35.5,-1.72 17.7,11.82 -8.98,6.83 -22.64,-6.87 -17.7,-11.82zm203.2 -118.53l2.53 2.52c-0.17,-0.16 -3.37,-1.68 -2.53,-2.52zm-59.26 -127c37.77,3.14 43.02,9.6 59.26,33.87 -32.72,-2.73 -40.83,-17.85 -59.26,-33.87zm-50.8 -50.8c10.25,-10.25 31.08,14.47 10.97,8.84 -0.01,-0.01 -0.93,-0.46 -1,-0.51 -5.56,-4.05 -22.23,3.93 -9.97,-8.33zm101.6 -93.13l0 -67.74c28.25,-13.55 19.14,-2.12 44.22,-23.51 24.7,-21.07 9.75,-24.03 48.91,-27.29 -13.94,20.83 -29.72,34.39 -48.8,52.8 -46.09,44.47 -30.64,44.16 -44.33,65.74zm-143.94 245.53c1.19,1.92 19.09,-9.74 3.33,22.13 -7.16,14.47 -39.24,29.53 -41.84,-33.15l-8.99 -48.67c-2.39,-35.37 23.62,-24.45 -11.76,-50.38 -26.2,19.2 -9.33,28.24 -27.94,50.8l-0.82 42.34c-8.11,32.16 -4.98,97.3 -5.16,143.99l-0.03 143.4c-1.94,57.12 -21.19,263.35 93.21,186.74 -18.02,-24.6 1.18,-15.96 -42.33,-16.93 23.58,-32.18 7.56,-11.63 53.07,-13.75l11.33 -1.26c11.69,-2.89 38.76,-31.84 72.19,-3.74 32.88,27.64 -3.03,23.87 41.21,35.68 -7.9,29.58 -3.22,19.01 -25.4,33.87 16.47,24.59 17.13,11.36 25.4,42.33 -39.33,-10.5 -7.49,-13.33 -50.8,-16.93 -4.5,19.3 -6.56,19.47 -8.47,42.33l33.54 -9.5 0.33 26.43 33.87 0c0.97,-43.51 -7.67,-24.31 16.93,-42.33 38.93,36.93 -4.2,38.38 42.33,50.8 17.01,-23.21 25,-20.21 50.8,-33.87l0 -118.53c20.15,13.49 8.82,10.25 33.87,16.93 -14.85,-22.18 -4.28,-17.5 -33.87,-25.4l1.24 -186.26 0.11 -84.67c-9.69,-156.96 18.89,-460.98 -9.81,-584.2 -109.04,-25.4 -83.44,-2.58 -110.07,16.93 -3.97,-36.27 4.58,-22.65 -46.21,-29.99 -29.87,-4.32 -49.35,-3.87 -80.79,-3.87l-36.68 64.87c-16.42,31.34 -22.86,50.16 -64.92,53.66 2.81,33.78 11.7,37.89 25.62,59.05 24.01,36.5 9.13,34.5 25.18,67.95 81.62,-43.19 19.87,-18.19 66.19,-25.58l38.34 -21.95c32.31,-22.19 12.88,-3 30.94,-37.14 20.14,13.49 8.82,10.25 33.86,16.94 -28.77,39.27 -19.29,-2.38 -48.67,28.13 -17.56,18.24 -7.85,-2.1 -9.78,36.46 -0.09,1.68 0.11,4.36 0.06,5.89 -0.97,27.52 -0.93,21.77 -20.19,37.75l-13.54 8.83c-0.93,0.6 -3.16,1.71 -4.04,2.28 -1.61,1.03 -5.65,3.56 -7.13,4.65 -89.13,65.95 -31.46,53.82 -23.71,146.94z"/>
  <path class="fil1" d="M1823.22 14258.18c67.12,-44.95 401.61,-386.02 484.65,-463.62l74.15 -61.32c-6.14,23.02 -25.03,50.19 -38.89,71.18 -17.59,26.63 -30.52,48.52 -45.3,73.23l-85.14 143.46 375.03 -344.64c46.99,-39.35 88.61,-74 132.97,-112.56 -43.47,3.62 -116.34,49.24 -186.27,50.8 47.18,-70.45 185.65,-120.5 215.16,-208.18 72.08,-214.21 107.3,-327.26 261.02,-484.07 58.13,-59.31 42.4,-40.94 142.38,-19.44 138.38,29.75 132.94,-4.33 203.41,-49.62 20.61,-13.25 35.52,-12.21 33.32,-36.95l-32.68 -66.57c-28.85,-28.57 -22.9,5.05 -26.74,-41.1 -146.39,12.18 -45.64,33.86 -321.73,33.86 -44.47,66.41 -86.17,129.26 -132.07,198.13 -73.28,109.95 -434.84,587.08 -551.75,718.25l-271.73 320.95c-30,37.05 -221.46,247.01 -229.79,278.21z"/>
  <path class="fil0" d="M9781.9 13157.51c-21.9,2.72 -2.59,-28.62 -0.28,-10.51 0.02,0.14 0.25,2.23 0.27,2.45 0.05,0.74 7.06,7.18 0.01,8.06zm93.13 -169.33c0.46,-3.68 38.41,-15.17 11.3,0.58 -14.78,8.58 -12.89,12.25 -11.3,-0.58zm-93.13 -135.47l-16.49 9.19c-19.5,-36.73 -8.21,-37.6 -67.77,-35.55 -42.63,1.47 -47,9.19 -93.21,9.76 -58.99,0.73 -151.3,-12.87 -195.07,8.13 -17.62,36.74 -17.62,276.54 0,313.27 50.33,24.15 378.02,8.47 465.67,8.47l23.59 -27.22 2.2 -252.57c-2.95,-37.86 -10.09,-42.81 -42.72,-50.41 -9.2,19.17 -5.44,31.14 -13.99,45.27 -10.28,16.99 -23.21,20.62 -45.28,22.46 -6.81,-17.42 5.84,-10.34 1.27,-24.1 -0.11,-0.33 -0.96,-1.91 -1.14,-2.21 -15.63,-26.15 -11.5,39.26 -17.06,-24.49z"/>
  <path class="fil1" d="M4854.29 13115.18c56.25,-37.67 211.08,-216.32 273.43,-268.44 104.58,-87.41 165.05,-166.28 240.99,-233.15l129.05 -116.48 8.68 -8.47 0.66 -279.4c-20.69,14.18 -67.95,85.36 -85.51,110.1l-487.47 680.93c-18.98,25.31 -73.3,90.47 -79.83,114.91z"/>
  <path class="fil2" d="M5823.43 11777.44c41.41,49.24 41.94,163.85 80.73,221.6 10.7,-24.51 48.31,-157.79 50.8,-187.73l28.24 39.5c19.78,33.37 145.59,253.55 159.24,256.98l7.86 -0.74c1.03,-0.1 3.46,-1.13 4.59,-1.27l37.14 1.86 0 -135.46c-104.21,-50.01 -44.88,-3.22 -53.3,-57.67 -2.4,-15.57 -2.47,-11.17 -5.62,-18.21 -0.78,-1.75 -2.16,-3.82 -3.05,-5.51 -25.72,-48.33 -24.91,-36.44 -56.57,-37.15 7.93,-37.42 -0.25,-43.86 -32.41,-69.14 -51.39,-40.38 -132.22,-122.49 -193.33,-46.31l-24.32 39.25z"/>
  <path class="fil2" d="M7893.49 13445.38c64.74,33.46 36.89,57.22 181.89,165.59 25.12,18.77 40.63,40.94 63.98,51.95 5.93,-16.37 4.1,-48.63 6.11,-72.71 3.41,-40.6 2.54,-14.11 -4.42,-60.17 -26.68,-15.82 -45.53,-36.64 -65.86,-62.83 -24.27,-31.29 -37.12,-41.93 -59.51,-75.95 -30.69,-46.65 -80.08,-122.63 -122.97,-149.08l0.78 203.2z"/>
  <path class="fil1" d="M2991.62 13479.24l628.64 -624.43 -37.69 3.92c-19.56,21.2 17.19,10.43 -18.11,19.41 -0.62,0.16 -2.94,0.2 -3.65,0.36l-27.32 8.08c-12.11,-57.17 42.39,-2.56 -8.47,-50.8 -24.64,18.05 -6.87,8.78 -15.86,18 -13.26,13.6 3.08,7.36 -18,15.86 8.79,32.94 20.49,9.19 33.86,42.34 -58.81,31.11 -56.23,65.76 -64.71,25.61 -6.31,-29.91 25.84,-80.3 30.85,-101.81 -16.98,12.43 -39.05,45.62 -52.57,65.96l-147.28 208.32c-33.22,50.33 -64.55,91.85 -96.44,140.63 -37.47,57.28 -41,65.47 -169.38,76.15 0,62.11 -29.36,98.26 -33.87,152.4z"/>
  <path class="fil2" d="M6132.76 12530.98c0,-22.99 30.29,-0.01 7.59,0.46 -8.55,0.18 -7.59,18.79 -7.59,-0.46zm-8.47 -84.67l0 0zm-169.78 -287.87c2.28,46.9 44.92,161.44 61.01,211.67 -27.95,36.9 -30.12,-0.5 -32.57,40.08l41.05 -18.17 38.67 130.49c13.52,0 10.82,-3.77 10.82,8.47 36.28,8.45 55.77,18.57 84.67,33.86 7.03,-33.2 3.66,-26.51 -6.9,-60.23 -10.65,-33.99 -3.9,-41.4 -26.97,-58.3 18.91,-45.76 -106.22,-296.76 -110.06,-313.27 -32.34,8.64 -21.11,16.63 -59.72,25.4z"/>
  <path class="fil2" d="M7173.04 12547.91c5.11,46.1 -14.49,57.12 -14.58,56.97 -0.86,-1.5 -3.92,3.83 -5.72,5.89 38.56,18.63 19.52,18.73 27.3,64.14 39.11,17.51 74.55,45.15 110.97,69.42 18.74,12.5 32.41,21.14 50.95,33.72 22.79,15.47 33.28,28.65 52.34,39.45 38.66,-17.08 71.4,-3.25 98.34,-15.59 -51.01,-45.51 -100.87,-99.88 -151.26,-150.28 -29.28,-29.28 -45.14,-47.15 -78.97,-73.43 -31.56,-24.52 -47.13,-53.18 -88.25,-64.16 0.21,2.49 2.53,20.66 2.49,21.34 -0.95,15.5 4.17,-0.59 -3.61,12.53z"/>
  <path class="fil2" d="M6666.16 12530.98l0 0zm-83.43 -50.8c22.53,9.76 12.42,20.55 15.7,-16.94l33.86 0 0 33.87 42.34 16.93c-38.74,-9.02 -29.7,-22.84 -42.34,8.47 15.45,7.66 10.6,6.53 33.87,8.47 7.1,26.6 20.64,34.49 37.5,55.63l129.15 156.03 -0.69 -287.86 -28.82 27.12c3.52,20.54 6.03,23.16 15.26,40.61 -25.51,-6.81 -18.59,0.11 -25.4,-25.4 -17.1,11.45 -33.69,22.41 -50.8,33.87 -14.16,-21.15 -14.23,-19.13 -33.74,-34 -37.42,-28.51 -79.36,-74.35 -125.78,-101.47l-0.11 84.67z"/>
  <path class="fil1" d="M5506.11 12657.98l1.43 -160.87 -9.78 0c-11.99,51.48 -182.35,299.95 -203.2,389.47 48.7,-32.62 115.94,-126.37 158.74,-171.46 21.77,-22.93 30.41,-42.01 52.81,-57.14z"/>
  <path class="fil1" d="M7411.23 13538.51c-7.88,-33.83 -21.79,-63.51 -32.88,-94.12 -11.26,-31.03 -23.11,-62.37 -34.86,-92.15 -15.08,-38.25 -64.61,-157.22 -67.73,-194.73l-16.93 0c-34.2,146.79 -83.45,68.69 82.28,290.25 20,26.73 47.38,74.09 70.12,90.75z"/>
  <path class="fil1" d="M8630.43 13936.23l-127 -1.31c23.83,39.73 96.35,102.38 133.42,139.03 48.18,47.63 82.02,104.73 137.51,141.89 -11.46,-42.93 -133.88,-235.93 -143.93,-279.61z"/>
  <path class="fil3" d="M5730.15 12285.44c-19.29,10.41 -11.67,-4.13 -41.38,26.85 3.62,-37.88 2.13,-36 -23.24,-49.72 -17.76,35.45 25.07,70.05 46.42,97.03 14.64,-15.99 10.84,-17.93 23.3,-31.03 16.9,-17.77 17.32,-11.77 33.74,-26.14 15.19,-13.29 18.34,-24.1 25.47,-32.97l28.92 -23.09c1.32,-0.8 4.25,-1.88 6.09,-3.26l-24.9 -35.96c-27,12.48 -21.85,9.58 -35.88,28.21l-25.4 -38.68c-14.13,21.57 -15.76,61.15 -13.14,88.76z"/>
  <path class="fil0" d="M14032.17 12285.44c1.08,48.7 7.89,38.4 27.21,66.6 32.95,48.1 -4.54,17.9 15.12,60.4 52.88,0 33.87,-87.46 33.87,-194.73 -36.18,26.51 -18.34,62.92 -76.2,67.73z"/>
  <path class="fil0" d="M12101.77 12928.91c2.81,33.78 11.7,37.89 25.61,59.05 24.02,36.5 9.13,34.5 25.19,67.95 43.37,-22.95 25.4,-57.27 25.4,-186.27 -34.43,25.23 -18.73,54.49 -76.2,59.27z"/>
  <path class="fil2" d="M7177.64 13115.18c33.25,-30.36 26.85,0.09 13.45,25.4 80.59,-6.71 51.04,-74.34 26.8,-128.47 -17.91,-40.01 -8,-9.37 -35.26,-37.94 -15.19,31.83 -5.95,100.18 -4.99,141.01z"/>
  <path class="fil2" d="M6832.25 12886.58l2.01 -59.27c-19.76,-11.45 -31.36,-19.4 -51.17,-32.25 -20.98,-13.6 -38.15,-22.36 -57.73,-35.41 -26.26,-17.51 -83.61,-60.76 -110,-67.81l160.87 143.94c23.1,17.41 35.3,32.34 56.02,50.8z"/>
  <path class="fil0" d="M7047.16 12158.44l0 0zm0 -16.93l0 16.93 -8.47 -16.93 -16.48 9.19c-3.72,-30.62 -0.67,-14.15 -9.57,-25.46 -2.56,-3.25 -20.72,-14.9 -24.75,-17.6 -29.67,61.85 30.7,50.8 42.34,50.8l-16.94 16.94c10.79,22.47 7.73,9.06 8.47,42.33 25.19,-26.55 26.37,-31.13 59.27,-33.87 -4.94,-13.65 -37.23,-36.21 25.4,-50.8l-17.4 -33.62 -30.46 28.1c-1.08,1.27 -2.85,3.51 -3.81,4.66l-7.6 9.33z"/>
  <path class="fil0" d="M6420.63 12717.24c-3.01,-36.08 -4.61,-42.98 -33.87,-50.8l9.5 33.54c-45.33,-3.45 -16.34,8.41 -26.43,-16.6 -34.38,25.18 -0.56,29.68 -50.8,33.86 6.12,26.28 10.81,24.53 16.93,50.8l16.93 0c-1.9,-22.86 -3.97,-23.03 -8.46,-42.33 55.48,14.81 -4.69,19.05 50.8,33.87 2.8,-33.72 3.42,-27.62 25.4,-42.34z"/>
  <path class="fil0" d="M12838.37 12996.64c-7.76,-33.3 -3.93,-34.33 -33.87,-42.33l9.5 33.54c-45.33,-3.45 -16.34,8.41 -26.43,-16.61 -32.37,23.72 -1.2,22.31 -50.8,33.87 6.12,26.28 10.81,24.52 16.93,50.8 30.45,-22.31 12.28,-4.99 8.47,-50.8 38.66,25.89 10.74,31.64 50.8,42.33 0.89,-40.13 -0.34,-33.56 25.4,-50.8z"/>
  <path class="fil0" d="M6970.96 11980.64c-7.76,-33.3 -3.92,-34.33 -33.87,-42.33l9.51 33.54c-26.09,-6.36 -14.76,-3.12 -34.91,-16.61 -16.89,31.94 -12.17,22.14 -42.33,42.34 15.01,28.36 6.33,23.89 33.87,42.33l-9.75 -50.52c32.22,20.44 17.45,22.88 43.61,42.05 17.15,-35.74 -1.48,-27.12 33.87,-50.8z"/>
  <path class="fil0" d="M6496.83 12886.58l0 0zm0 0c-12.3,-6.91 -8.97,-4.11 -25.4,-8.47 15.92,33.18 3.01,31.58 0,67.73 27.63,-18.5 19.54,-24.61 59.26,-33.86 -13.97,-60.01 -5.4,-17.22 25.4,-59.27l-25.4 -25.4c-11.39,42.68 -22.47,16.58 -33.86,59.27z"/>
  <path class="fil0" d="M14844.97 12530.98l-24.38 -18.16c12.24,84.58 8.22,1.39 -9.49,77.42 11.03,-7.38 8.74,-7.19 19.14,-14.74 37.8,-27.45 47.95,-12.91 40.7,-36.73l-5.73 -10.41c-0.58,-1.17 -2.55,-3.74 -3.31,-5.85 17.45,-9.23 20.07,-11.75 42.34,-16.93 -13.49,-20.15 -10.25,-8.82 -16.94,-33.87 -23.39,15.67 -39.42,24.24 -42.33,59.27z"/>
  <path class="fil1" d="M3353.81 12732.3l35.75 1.88c6.44,58.89 25.4,-8.93 25.4,76.2 30.81,-7.18 27.15,-4.68 42.33,-25.4 -37.54,-13.59 -29.14,-56.39 -67.73,-84.67l-35.75 31.99z"/>
  <path class="fil4" d="M6239.47 12226.18l0.82 -42.34c-39.64,-3.77 -10.68,-7.96 -48.26,0 7.88,33.86 6.14,41.24 47.44,42.34z"/>
  <path class="fil0" d="M6310.56 12835.78l33.54 9.5c1.63,-59.36 13.05,-18.14 17.26,-68.77 -27.54,7.35 -43.59,32.28 -50.8,59.27z"/>
  <path class="fil0" d="M6860.89 12107.64l33.54 9.51c-9.55,-47.68 4.9,-15.7 17.26,-68.77 -32.5,8.68 -43.07,26.12 -50.8,59.26z"/>
  <path class="fil0" d="M12728.3 13123.64l33.54 9.51c-9.55,-47.68 4.9,-15.7 17.26,-68.77 -26.98,7.2 -41.12,22.99 -50.8,59.26z"/>
  <path class="fil0" d="M14658.7 12463.24l0 16.94c11.41,6.41 9.36,4.62 25.4,8.46 3.95,-8.38 0.87,-3.11 2.12,-12.46 8.69,-64.55 10.09,1.55 14.81,-55.27 -18.86,6.83 -13.06,4.96 -24.45,17.88 -5.27,5.99 -17.88,18.76 -17.88,24.45z"/>
  <path class="fil0" d="M5751.76 12818.84c26.28,-6.12 24.52,-10.81 50.8,-16.93 -14.93,-20.37 -16.94,-22.58 -50.8,-25.4l0 42.33z"/>
  <path class="fil0" d="M14074.5 12141.51c23.9,-1.99 33.87,0.2 33.87,-25.4 0,-32.37 2.6,-3.08 -8.47,-25.4 -25.73,17.23 -24.5,10.66 -25.4,50.8z"/>
  <path class="fil0" d="M12169.5 12784.98c11.29,-23.54 8.47,-16.4 8.47,-50.8 -18.96,5.06 -22.16,1.43 -29.87,22.39 -9.33,25.35 1.24,23.02 21.4,28.41z"/>
  <path class="fil0" d="M6302.09 12090.71c31.43,-16.63 33.11,-8.37 42.34,-33.87 -22.48,-10.78 -9.06,-7.72 -42.34,-8.46l0 42.33z"/>
  <path class="fil0" d="M5599.36 12624.11c26.28,-6.12 24.52,-10.81 50.8,-16.93l0 -16.94 -33.54 -9.5c-8.71,32.43 -8.88,11.98 -17.26,43.37z"/>
  <path class="fil0" d="M14802.64 12530.98c3.4,-14.62 16.08,-42.34 -8.47,-42.34 -19.62,0 -25.04,5.86 -21.02,20.33 5.64,20.33 12.17,17.38 29.49,22.01z"/>
  <path class="fil0" d="M12017.1 12886.58c-24.05,42.8 33.88,14.63 50.8,-8.47 -28.91,-6.73 -20.4,-6.97 -39.44,2.31l-11.36 6.16z"/>
  <path class="fil0" d="M6437.56 12886.58c29.58,-7.9 19.01,-3.22 33.87,-25.4 -38.68,-25.9 -46.01,-26.73 -33.87,25.4z"/>
  <path class="fil0" d="M13947.5 12260.04c21.27,10.03 -0.15,1.43 42.33,-8.46 -6.81,-25.51 0.11,-18.59 -25.4,-25.4 -0.59,1.07 -1.23,1.86 -1.42,3.38 -0.19,1.56 -1.3,2.96 -1.59,3.39l-11.09 13.55c-13.83,21.26 -8.36,1.05 -2.83,13.54z"/>
  <path class="fil0" d="M12821.43 13089.78c34.75,-9.28 25.4,-6.31 25.4,-50.8 -25.73,17.23 -24.5,10.66 -25.4,50.8z"/>
  <path class="fil5" d="M6302.09 12793.44l16.94 0c5.94,-22.41 -0.68,-6.96 8.46,-25.4l-33.86 -16.93c1.9,22.82 3.86,23.1 8.46,42.33z"/>
  <path class="fil0" d="M6234.36 12768.04c19.93,-4.64 25.01,-7.89 50.8,-8.46 -9.92,-14.27 -1.21,-16.94 -25.4,-16.94 -20.02,0 -24.86,5.85 -25.4,25.4z"/>
  <path class="fil0" d="M11983.23 13843.31c-3.49,-31.9 -2.94,-30.59 -42.33,-33.87 14.45,21.59 14.51,26.44 42.33,33.87z"/>
  <path class="fil0" d="M14641.77 12437.84c25.5,-6.81 18.59,0.11 25.4,-25.4l-33.87 -16.93c9.78,20.37 8.47,11.01 8.47,42.33z"/>
  <path class="fil6" d="M6242.83 12124.58l27.21 -23.59c-17.26,-9.47 -12.4,-8.34 -35.68,-10.28 2.23,26.22 -0.1,16.01 8.47,33.87z"/>
  <path class="fil0" d="M12719.83 13081.31c36.25,-26.56 18.72,-27.95 -8.46,-42.33 1.9,22.81 3.86,23.1 8.46,42.33z"/>
  <path class="fil0" d="M14091.43 12463.24l16.94 0 0 -42.33c-23.33,17.09 -16.94,-0.6 -16.94,42.33z"/>
  <path class="fil1" d="M3745.16 12471.71l18.63 -15.24c-24.17,-12.48 -10.76,-9.42 -44.03,-10.16l25.4 25.4z"/>
  <path class="fil0" d="M7038.69 12141.51l8.47 0c0.96,-43.1 20.96,-32.58 -8.47,-42.33l0 42.33z"/>
  <polygon class="fil7" points="5590.89,12370.11 5607.83,12370.11 5607.83,12344.71 5590.89,12344.71 "/>
  <path class="fil0" d="M6852.43 12065.31c26.01,-19.06 13.66,5.45 16.93,-33.87 -21.66,15.87 -16.93,-2.93 -16.93,33.87z"/>
  <path class="fil0" d="M14675.63 12395.51l9.19 16.49c17.99,-12.56 9.8,-0.94 16.21,-24.96 -11.4,6.41 -9.35,4.63 -25.4,8.47z"/>
  <path class="fil8" d="M7208.03 13208.31c18.71,-13 10.52,-1.39 16.93,-25.4l-16.93 0 0 25.4z"/>
  <polygon class="fil5" points="12169.5,13106.71 12177.97,13106.71 12177.97,13072.84 12169.5,13072.84 "/>
  <path class="fil5" d="M14828.04 12497.11c18.71,-13 10.52,-1.39 16.93,-25.4 -14.01,9.73 -16.28,1.79 -16.93,25.4z"/>
  <polygon class="fil9" points="6327.49,12243.11 6311.01,12233.92 6310.56,12260.04 "/>
  <polygon class="fil0" points="14099.9,12539.44 14108.37,12539.44 14108.37,12514.04 14099.9,12514.04 "/>
  <polygon class="fil0" points="13879.77,12217.71 13905.17,12217.71 13905.17,12209.24 13879.77,12209.24 "/>
  <polygon class="fil5" points="6573.03,12835.78 6581.49,12835.78 6581.49,12810.38 6573.03,12810.38 "/>
  <path class="fil5" d="M5599.36 12683.38c8.59,-11.36 8.47,17.8 8.47,-25.4l-8.47 0 0 25.4z"/>
  <path class="fil5" d="M6970.96 11980.64l0 25.4 8.47 0c0,-44.76 -0.06,-12.62 -8.47,-25.4z"/>
  <path class="fil5" d="M12838.37 12996.64l0 25.4 8.46 0c0,-44.76 -0.06,-12.62 -8.46,-25.4z"/>
  <path class="fil5" d="M9781.9 12852.71c18.22,-12.66 11.15,-1.24 16.93,-25.4 -18.71,13 -10.52,1.39 -16.93,25.4z"/>
  <path class="fil5" d="M6437.56 12903.51c1.79,9.66 18.61,18.51 11.39,1.71 -3.04,-7.09 -15.45,-23.7 -11.39,-1.71z"/>
  <path class="fil5" d="M5641.69 12657.98c-5.48,-20.69 3.76,-11.45 -16.93,-16.94 5.84,22.01 -3.14,9.45 16.93,16.94z"/>
  <path class="fil5" d="M14785.7 12463.24c-20.69,5.49 -11.44,-3.75 -16.93,16.94 22,-5.84 9.44,3.14 16.93,-16.94z"/>
  <path class="fil5" d="M12008.63 12632.58c5.49,20.68 -3.75,11.44 16.94,16.93 -5.84,-22 3.14,-9.44 -16.94,-16.93z"/>
  <path class="fil5" d="M12152.57 12573.31c5.48,20.69 -3.76,11.45 16.93,16.93 -5.84,-22 3.14,-9.44 -16.93,-16.93z"/>
  <path class="fil0" d="M12059.43 12945.84c-5.48,-20.68 3.76,-11.44 -16.93,-16.93 5.84,22 -3.14,9.44 16.93,16.93z"/>
  <path class="fil5" d="M6488.36 12852.71c1.34,-1.48 3.55,-5.69 4.03,-4.42 0.49,1.29 3.22,-3.66 3.84,-4.64 5.94,-9.25 3.93,-6.63 9.06,-16.34 -22.24,8.3 -12.56,-0.16 -16.93,25.4z"/>
  <path class="fil0" d="M11957.83 12861.18c8.7,8.69 30.63,-12.19 9.82,-4.57 -0.2,0.07 -24.03,-9.64 -9.82,4.57z"/>
  <path class="fil0" d="M14040.63 12251.58c8.7,8.69 30.63,-12.19 9.82,-4.57 -0.2,0.07 -24.03,-9.64 -9.82,4.57z"/>
  <path class="fil0" d="M13685.03 13750.18c8.7,8.69 30.63,-12.19 9.82,-4.57 -0.2,0.07 -24.03,-9.64 -9.82,4.57z"/>
  <path class="fil0" d="M12110.23 12895.04c8.7,8.7 30.63,-12.18 9.82,-4.56 -0.2,0.07 -24.03,-9.65 -9.82,4.56z"/>
  <path class="fil0" d="M6242.83 11879.04c8.69,8.7 30.62,-12.18 9.82,-4.56 -0.21,0.07 -24.03,-9.65 -9.82,4.56z"/>
  <path class="fil8" d="M7191.09 13233.71c0,9.95 18.22,19.08 13.11,0 -5.13,-19.13 21.54,-0.23 -3.91,-2.51 -10.66,-0.96 -9.2,-14.7 -9.2,2.51z"/>
  <path class="fil5" d="M5760.23 12979.71c0,9.95 18.22,19.08 13.1,0 -5.12,-19.13 21.54,-0.23 -3.91,-2.51 -10.66,-0.96 -9.19,-14.7 -9.19,2.51z"/>
  <path class="fil1" d="M3745.16 12471.71c-5.78,9.52 -21.84,-17.67 -3.99,8.49 8.39,12.3 -8.56,0.61 12.46,8.44l-8.47 -16.93z"/>
  <path class="fil1" d="M6200.49 12056.84c0.35,2.8 9.34,1.9 10.1,1.62 2.1,-0.79 14.7,19.59 3.67,-2.28 -0.24,-0.48 -15.79,-15.66 -13.77,0.66z"/>
  <path class="fil0" d="M5692.49 12607.18c0.35,2.79 9.34,1.89 10.1,1.61 2.1,-0.79 14.7,19.6 3.67,-2.27l-4.41 -2.01c-6.56,-0.14 -11.52,-14.77 -9.36,2.67z"/>
  <path class="fil0" d="M6276.69 11853.64c0,21.04 13.54,2.17 5.26,0 -0.11,-0.02 -5.26,-24.02 -5.26,0z"/>
  <path class="fil0" d="M6251.29 12725.71c0,21.03 13.54,2.16 5.26,0 -0.11,-0.03 -5.26,-24.02 -5.26,0z"/>
  <path class="fil0" d="M13939.03 11997.58c0,21.03 13.54,2.16 5.26,0 -0.11,-0.03 -5.26,-24.02 -5.26,0z"/>
  <path class="fil1" d="M6149.69 11938.31c0,21.03 13.54,2.16 5.26,0 -0.11,-0.03 -5.26,-24.02 -5.26,0z"/>
  <path class="fil0" d="M6987.89 12175.38c0,21.03 13.54,2.16 5.26,0 -0.11,-0.03 -5.26,-24.02 -5.26,0z"/>
  <path class="fil0" d="M12017.1 12954.31c0,21.03 13.54,2.16 5.25,0 -0.1,-0.03 -5.25,-24.02 -5.25,0z"/>
  <path class="fil0" d="M13972.9 12293.91c0,21.03 13.54,2.16 5.25,0 -0.1,-0.03 -5.25,-24.02 -5.25,0z"/>
  <path class="fil0" d="M10315.3 13030.51c0,21.03 13.54,2.16 5.25,0 -0.1,-0.03 -5.25,-24.02 -5.25,0z"/>
  <path class="fil5" d="M10306.83 13055.91c0,21.03 13.54,2.16 5.25,0 -0.1,-0.03 -5.25,-24.02 -5.25,0z"/>
  <path class="fil5" d="M13939.03 12319.31c20.69,-5.49 11.45,3.75 16.94,-16.93l-16.94 16.93z"/>
  <path class="fil0" d="M6987.89 12107.64c-5.48,-20.68 3.76,-11.44 -16.93,-16.93l16.93 16.93z"/>
  <path class="fil0" d="M14785.7 12547.91c-10.64,10.64 9.81,11.25 3.76,0.21l-3.76 -0.21z"/>
  <polygon class="fil10" points="3956.83,13360.71 3948.36,13360.71 3955.41,13370.59 "/>
  <polygon class="fil11" points="7089.49,12276.98 7097.96,12276.98 7090.91,12267.1 "/>
  <polygon class="fil5" points="6987.89,12226.18 6987.89,12234.64 6997.77,12227.59 "/>
  <polygon class="fil10" points="2991.62,13479.24 2983.16,13479.24 2990.21,13489.12 "/>
  <polygon class="fil2" points="3491.16,12835.78 3499.62,12835.78 3492.57,12825.9 "/>
  <polygon class="fil10" points="4854.29,13115.18 4845.83,13115.18 4852.88,13125.05 "/>
  <polygon class="fil1" points="1823.22,14258.18 1814.76,14258.18 1821.81,14268.05 "/>
  <path class="fil12" d="M7318.09 12928.91l2.53 -2.52c-0.17,0.16 -3.37,1.68 -2.53,2.52z"/>
  <path class="fil5" d="M6293.63 11802.84l2.52 -2.52c-0.16,0.16 -3.36,1.68 -2.52,2.52z"/>
  <line class="fil13" x1="6242.83" y1="12124.58" x2="6242.83" y2= "12124.58" />
  <polygon class="fil0" points="14006.77,12014.51 14011.42,12032.71 "/>
  <polygon class="fil0" points="7089.49,12276.98 7081.03,12285.44 "/>
  <polygon class="fil0" points="6437.56,12818.84 6427.82,12835.35 "/>
  <polygon class="fil0" points="6420.63,12717.24 6425.28,12735.45 "/>
 </g>
</svg>
